<?xml version="1.0" standalone="no"?>
<!DOCTYPE svg PUBLIC "-//W3C//DTD SVG 20010904//EN"
 "http://www.w3.org/TR/2001/REC-SVG-20010904/DTD/svg10.dtd">
<svg version="1.0" xmlns="http://www.w3.org/2000/svg"
 width="1500.000000pt" height="1500.000000pt" viewBox="0 0 1500.000000 1500.000000"
 preserveAspectRatio="xMidYMid meet">
<metadata>
Created by potrace 1.14, written by Peter Selinger 2001-2017
</metadata>
<g transform="translate(0.000000,1500.000000) scale(0.100000,-0.100000)"
fill="#000000" stroke="none">
<path d="M2573 11410 l0 -780 261 2 261 3 1 505 c1 278 2 510 3 517 1 9 975
12 4156 11 l4155 0 0 -4158 0 -4158 -4158 0 -4157 -1 0 512 c1 282 -1 518 -3
525 -3 9 -8 10 -18 1 -8 -6 -14 -8 -14 -3 0 8 -79 8 -436 5 l-51 -1 0 -780 0
-780 4679 0 c4448 0 4678 1 4679 18 0 9 1 2115 2 4679 l2 4663 -4681 0 -4681
0 0 -780z"/>
<path d="M5514 10398 c-3 -4 3 -24 12 -45 9 -21 40 -99 70 -173 30 -74 58
-144 63 -155 5 -11 28 -67 51 -125 23 -58 51 -124 61 -147 11 -24 19 -47 19
-53 0 -6 4 -18 9 -28 5 -9 14 -30 21 -47 7 -16 16 -39 21 -50 5 -11 41 -101
80 -200 39 -99 76 -186 83 -194 6 -8 10 -17 10 -20 -2 -11 15 -55 126 -326 23
-55 43 -104 44 -110 4 -14 16 -43 37 -92 11 -23 19 -45 19 -49 0 -3 21 -56 46
-118 25 -61 50 -121 55 -133 5 -13 13 -33 19 -45 5 -13 34 -84 64 -158 29 -74
94 -236 144 -360 98 -243 113 -282 114 -290 0 -3 6 -16 13 -30 7 -14 23 -50
35 -80 11 -30 25 -64 30 -75 6 -11 21 -49 34 -85 14 -36 40 -102 60 -147 19
-46 32 -83 29 -83 -3 0 -1 -6 5 -12 5 -7 26 -56 47 -108 20 -52 43 -109 50
-125 20 -44 38 -88 41 -100 1 -5 16 -44 34 -85 65 -155 69 -167 56 -192 -7
-13 -27 -59 -45 -103 -18 -44 -36 -84 -40 -90 -3 -5 -6 -12 -7 -15 -1 -7 -21
-55 -50 -118 -13 -29 -24 -58 -24 -64 0 -6 -7 -19 -15 -28 -8 -9 -16 -25 -18
-36 -2 -10 -14 -41 -26 -69 -12 -27 -43 -97 -68 -155 -25 -58 -52 -112 -60
-121 -7 -8 -13 -20 -13 -25 0 -11 -74 -109 -115 -153 -33 -35 -120 -101 -134
-101 -5 0 -14 -7 -21 -15 -7 -9 -15 -13 -18 -10 -3 3 -10 1 -16 -4 -11 -8
-116 -43 -171 -56 -44 -11 -109 -16 -215 -17 -108 0 -179 6 -280 27 -93 19
-187 37 -200 38 -13 2 -15 -37 -15 -280 l0 -282 65 -12 c36 -6 74 -14 85 -16
31 -7 75 -12 135 -17 30 -3 55 -6 55 -7 0 -1 27 -3 60 -4 33 -2 60 -4 60 -5 0
-1 35 -2 78 -3 42 -1 77 0 77 3 0 3 37 5 83 5 45 -1 86 1 92 4 5 3 21 6 35 8
71 8 97 12 115 17 11 3 40 10 65 16 25 6 50 12 55 14 6 2 15 4 20 5 6 1 20 9
33 17 12 8 22 12 22 9 0 -6 126 62 164 89 83 59 170 142 237 226 40 50 149
213 149 223 0 2 18 36 39 75 21 39 36 73 33 76 -3 3 0 6 6 6 7 0 12 9 12 20 0
11 5 20 10 20 6 0 10 7 10 15 0 8 11 38 24 67 14 29 31 69 39 88 15 35 46 107
72 165 7 17 45 107 85 200 40 94 76 175 81 181 6 7 9 16 7 20 -1 5 12 40 30
77 18 38 32 70 32 72 0 3 12 30 27 62 15 32 28 63 29 68 1 6 13 35 27 65 14
30 44 100 67 155 23 54 50 117 60 140 10 22 66 153 125 290 115 271 130 305
151 349 8 16 14 32 14 36 0 4 14 38 32 76 17 38 33 74 34 79 1 6 21 53 44 105
60 136 63 144 62 153 -1 4 3 7 8 7 6 0 10 7 10 15 0 8 4 23 9 33 14 25 24 56
23 65 -1 4 3 7 8 7 6 0 10 4 10 10 0 5 66 161 146 347 80 186 146 344 147 351
0 6 4 12 9 12 4 0 8 6 8 13 0 8 24 68 54 135 30 66 51 123 48 126 -3 3 0 6 6
6 7 0 11 3 10 8 -1 4 8 29 20 56 12 27 22 50 22 52 0 6 50 118 65 146 8 14 15
30 15 36 0 5 12 36 27 68 15 33 28 61 28 64 1 3 8 21 17 40 8 19 34 80 58 135
23 55 47 106 52 113 6 6 8 12 4 12 -3 0 4 18 15 40 11 21 22 45 23 52 2 7 15
39 29 72 15 32 27 60 27 62 0 2 12 29 26 61 14 32 32 72 39 88 7 17 22 51 34
77 11 26 21 50 21 53 0 2 12 29 26 60 15 31 24 58 21 62 -5 5 -534 8 -622 4
-14 -1 -25 -15 -38 -49 -11 -26 -48 -117 -83 -203 -35 -85 -64 -161 -64 -167
0 -7 -5 -12 -10 -12 -6 0 -9 -3 -8 -7 0 -5 -2 -17 -7 -28 -59 -148 -168 -415
-175 -430 -5 -11 -30 -72 -56 -135 -25 -63 -52 -128 -59 -145 -8 -16 -25 -59
-40 -95 -14 -36 -31 -76 -37 -90 -56 -134 -73 -174 -74 -180 -1 -6 -10 -29
-34 -85 -9 -22 -28 -67 -41 -100 -13 -33 -26 -62 -29 -65 -3 -3 -6 -12 -8 -20
-2 -8 -10 -31 -19 -50 -10 -19 -18 -39 -19 -45 -3 -12 -98 -244 -121 -295 -9
-19 -16 -41 -16 -47 0 -7 -5 -13 -10 -13 -6 0 -7 -3 -4 -7 4 -3 1 -16 -6 -27
-7 -12 -21 -43 -32 -71 -17 -47 -34 -88 -65 -160 -8 -16 -14 -32 -15 -35 -3
-8 -25 -64 -34 -85 -27 -63 -61 -145 -72 -177 -7 -21 -17 -38 -22 -38 -4 0 -6
-4 -3 -9 4 -5 -1 -22 -9 -38 -16 -31 -26 -55 -105 -250 -30 -73 -57 -133 -61
-133 -4 0 -10 10 -14 23 -7 23 -13 38 -39 99 -9 20 -16 39 -16 43 0 4 -6 21
-14 38 -12 28 -26 62 -31 77 -1 3 -7 19 -14 35 -7 17 -12 31 -12 33 1 1 -6 16
-14 32 -9 17 -13 30 -9 30 4 0 2 6 -3 13 -6 6 -36 77 -67 157 -32 80 -74 186
-94 235 -20 50 -37 92 -37 95 0 3 -12 34 -27 70 -15 36 -98 243 -183 460 -86
217 -171 433 -190 480 -33 84 -47 120 -50 130 -1 3 -9 22 -18 44 -9 21 -17 41
-17 43 0 3 -7 21 -16 41 -20 46 -40 96 -49 122 -3 10 -26 65 -34 85 -5 11 -21
52 -36 90 -15 39 -30 79 -35 90 -4 11 -8 24 -8 28 0 4 -8 19 -16 33 -9 13 -14
24 -11 24 3 0 -4 18 -15 40 -11 22 -17 40 -13 40 4 0 2 5 -5 12 -7 7 -12 20
-12 30 0 10 -4 18 -10 18 -5 0 -9 3 -8 8 0 4 -2 16 -6 27 -39 102 -60 154 -72
177 -8 15 -14 29 -13 30 3 4 -34 102 -40 108 -4 3 -7 10 -8 15 -5 26 -44 120
-52 128 -12 12 -640 16 -647 5z"/>
</g>
</svg>
